<svg xmlns="http://www.w3.org/2000/svg" viewBox="0 0 144 144" width="144" height="144">
  <defs>
    <linearGradient id="bg-144" x1="0%" y1="0%" x2="100%" y2="100%">
      <stop offset="0%" style="stop-color:#7c3aed;stop-opacity:1" />
      <stop offset="100%" style="stop-color:#6366f1;stop-opacity:1" />
    </linearGradient>
    <linearGradient id="film-144" x1="0%" y1="0%" x2="100%" y2="100%">
      <stop offset="0%" style="stop-color:#fde68a;stop-opacity:1" />
      <stop offset="100%" style="stop-color:#f59e0b;stop-opacity:1" />
    </linearGradient>
  </defs>
  <!-- 背景 -->
  <rect width="144" height="144" rx="25" ry="25" fill="url(#bg-144)"/>
  <!-- 电影胶片外框 -->
  <rect x="21.599999999999998" y="31.68" width="100.8" height="80.64000000000001" rx="5.76" fill="url(#film-144)" stroke="#fcd34d" stroke-width="2.88"/>
  <!-- 胶片左侧孔洞 -->
  <circle cx="31.68" cy="43.199999999999996" r="3.6" fill="#7c3aed"/>
  <circle cx="31.68" cy="57.6" r="3.6" fill="#7c3aed"/>
  <circle cx="31.68" cy="72" r="3.6" fill="#7c3aed"/>
  <circle cx="31.68" cy="86.39999999999999" r="3.6" fill="#7c3aed"/>
  <circle cx="31.68" cy="100.8" r="3.6" fill="#7c3aed"/>
  <!-- 胶片右侧孔洞 -->
  <circle cx="112.32000000000001" cy="43.199999999999996" r="3.6" fill="#7c3aed"/>
  <circle cx="112.32000000000001" cy="57.6" r="3.6" fill="#7c3aed"/>
  <circle cx="112.32000000000001" cy="72" r="3.6" fill="#7c3aed"/>
  <circle cx="112.32000000000001" cy="86.39999999999999" r="3.6" fill="#7c3aed"/>
  <circle cx="112.32000000000001" cy="100.8" r="3.6" fill="#7c3aed"/>
  <!-- 画面屏幕 -->
  <rect x="43.199999999999996" y="46.08" width="57.6" height="51.839999999999996" rx="2.88" fill="#1a1b26" stroke="#8b5cf6" stroke-width="1.44"/>
  <!-- 戏剧脸谱 / 演员剪影（简化为戏剧面具） -->
  <!-- 左面具：喜剧笑脸 -->
  <circle cx="57.6" cy="69.12" r="8.64" fill="#fde68a" stroke="#f59e0b" stroke-width="2.16"/>
  <circle cx="55.44" cy="66.24000000000001" r="1.1520000000000001" fill="#1a1b26"/>
  <circle cx="59.76" cy="66.24000000000001" r="1.1520000000000001" fill="#1a1b26"/>
  <path d="M 54.72 73.44 Q 57.6 76.32000000000001 60.48 73.44" stroke="#1a1b26" stroke-width="2.16" fill="none" stroke-linecap="round"/>
  <!-- 右面具：戏剧严肃 -->
  <circle cx="86.39999999999999" cy="69.12" r="8.64" fill="#fbbf24" stroke="#d97706" stroke-width="2.16"/>
  <circle cx="84.24" cy="66.24000000000001" r="1.1520000000000001" fill="#1a1b26"/>
  <circle cx="88.56" cy="66.24000000000001" r="1.1520000000000001" fill="#1a1b26"/>
  <path d="M 83.52 74.88 Q 86.39999999999999 72 89.28 74.88" stroke="#1a1b26" stroke-width="2.16" fill="none" stroke-linecap="round"/>
  <!-- 底部文字：创作 -->
  <rect x="43.199999999999996" y="105.12" width="57.6" height="20.160000000000004" rx="2.88" fill="#7c3aed"/>
  <text x="72" y="120.24" font-family="'Microsoft YaHei', 'PingFang SC', sans-serif" font-size="11.52" font-weight="bold" fill="#ffffff" text-anchor="middle" dominant-baseline="middle">创作</text>
</svg>